<?xml version="1.0" standalone="no"?>
<!DOCTYPE svg PUBLIC "-//W3C//DTD SVG 20010904//EN"
 "http://www.w3.org/TR/2001/REC-SVG-20010904/DTD/svg10.dtd">
<svg version="1.0" xmlns="http://www.w3.org/2000/svg"
 width="260.000000pt" height="260.000000pt" viewBox="0 0 260.000000 260.000000"
 preserveAspectRatio="xMidYMid meet">
<metadata>
Created by potrace 1.11, written by Peter Selinger 2001-2013
</metadata>
<g transform="translate(0.000000,260.000000) scale(0.100000,-0.100000)"
fill="#000000" stroke="none">
<path d="M1272 2438 c-30 -30 -9 -56 259 -324 l271 -271 -227 -226 c-124 -125
-228 -227 -229 -227 -2 0 -3 101 -3 224 -1 123 -4 232 -7 244 -16 48 -75 32
-77 -21 0 -18 -1 -146 -1 -285 l-1 -252 -283 -285 c-156 -157 -284 -289 -284
-295 0 -5 13 -24 29 -42 48 -54 560 -563 570 -566 19 -6 51 19 51 41 0 15 -80
102 -271 293 l-271 271 226 227 c124 124 227 226 229 226 2 0 4 -100 5 -222 0
-123 1 -231 1 -241 1 -19 38 -38 58 -30 23 9 26 48 25 316 l0 269 273 273
c150 150 278 282 283 292 6 11 7 25 2 33 -22 36 -586 590 -600 590 -9 0 -21
-5 -28 -12z"/>
</g>
</svg>
